<?xml version="1.0" encoding="UTF-8"?> <svg xmlns="http://www.w3.org/2000/svg" width="618" height="216" viewBox="0 0 618 216" fill="none"> <rect width="618" height="216" fill="white"></rect> <path d="M398.261 202.619C397.647 202.619 397.034 202.599 396.42 202.556C391.92 202.242 387.563 200.773 383.475 198.193C377.151 194.201 373.886 187.602 372.262 182.767C371.173 179.529 370.596 176.322 370.037 173.22C369.855 172.217 369.676 171.224 369.483 170.242C368.897 169.732 368.321 169.217 367.754 168.709C365.804 166.963 363.788 165.159 361.518 163.713C355.072 159.608 342.407 153.127 330.019 155.843C327.531 156.388 324.979 157.34 322.513 158.26C318.464 159.768 314.307 161.317 309.995 161.319C308.818 161.319 307.632 161.204 306.434 160.941C303.583 160.318 301.39 158.516 300.312 156.036C299.911 157.423 299.144 158.634 298.022 159.629C294.312 162.916 287.16 163.179 281.742 160.227C280.654 159.634 279.572 158.98 278.525 158.348C275.612 156.586 272.601 154.764 269.279 154.195C260.748 152.732 253.626 159.256 246.736 165.564C245.945 166.288 245.128 167.037 244.335 167.746C241.181 170.571 237.176 173.63 232.595 175.978C233.83 176.853 234.741 178.071 235.286 179.601C236.915 184.174 234.875 190.307 231.959 193.594C227.912 198.156 220.825 201.027 213.001 201.272C212.639 201.284 212.276 201.29 211.912 201.29C203.551 201.29 195.19 198.277 188.819 192.935C182.88 187.957 178.684 180.244 177.31 171.773C176.87 169.058 176.726 166.382 176.873 163.79C170.594 165.915 163.693 166.117 157.096 166.12H87.5914C87.2646 166.12 87 165.856 87 165.529C87 165.202 87.2646 164.937 87.5914 164.937H157.094C163.757 164.934 170.73 164.727 176.969 162.505C177.468 157.209 179.189 152.301 182.055 148.187C183.12 146.657 186.557 142.735 189.619 142.943C190.464 143 191.648 143.418 192.498 145.083C193.329 146.712 193.407 148.52 192.732 150.455C190.767 156.09 183.151 161.102 179.77 162.645C179.208 162.902 178.641 163.139 178.067 163.359C177.26 173.866 181.359 185.142 189.578 192.032C196.007 197.42 204.53 200.357 212.964 200.094C220.469 199.858 227.241 197.136 231.076 192.813C233.705 189.849 235.637 184.108 234.173 180.001C233.63 178.476 232.688 177.336 231.36 176.59C227.115 178.598 222.415 179.953 217.463 179.953C217.005 179.953 216.548 179.942 216.087 179.918C210.457 179.63 204.924 177.105 200.904 172.987C195.841 167.803 195.712 159.879 197.856 153.962C197.056 150.05 197.201 146.284 198.283 142.584C199.117 139.734 200.237 136.947 201.32 134.253C202.603 131.06 203.931 127.758 204.769 124.367C207.205 114.522 207.793 103.295 206.57 90.0484C205.683 80.4394 204.143 69.3479 199.447 59.927C198.882 58.7953 198.154 57.5646 197.382 56.2623C194.046 50.6305 189.895 43.623 195.629 38.2096C198.029 35.9428 200.636 35.1251 203.379 35.7786C206.824 36.5996 210.363 39.692 213.897 44.9748C216.744 49.2277 218.929 53.9908 219.935 56.7772C220.401 58.0652 220.821 59.4632 221.19 60.9361C222.643 51.5965 220.324 41.5603 218.08 33.7191C217.907 33.1197 217.724 32.522 217.53 31.8891C216.243 27.6983 214.786 22.9496 217.533 18.8274C218.805 16.9177 220.689 15.6696 222.984 15.2137C225.578 14.6988 228.385 15.2886 230.684 16.8316C234.632 19.481 236.749 24.0368 238.3 28.1447C240.263 33.3413 242.242 39.547 243.549 46.0954C243.883 43.2468 244.115 40.3137 244.358 37.0762C244.562 34.344 244.288 31.6771 243.997 28.8556C243.806 26.9938 243.608 25.0697 243.565 23.1425C243.535 21.8067 243.546 20.3912 244.018 19.0649C245.649 14.4931 252.285 13.2514 256.136 14.4039C260.781 15.7939 263.789 20.1266 265.331 27.6505C267.172 36.633 267.951 44.7914 267.671 52.0508C274.484 48.4131 282.37 46.9131 289.149 48.0258C295.817 49.1209 301.435 52.2357 304.959 56.7134C310.025 52.953 316.272 50.3723 320.531 49.4987C326.179 48.3414 332.195 48.5263 337.472 50.0184C341.361 51.1183 344.755 52.8925 347.506 55.2421C347.492 54.673 347.479 54.1071 347.465 53.5428C347.422 51.7384 347.377 49.8717 347.321 48.0385C347.308 47.6209 347.294 47.1985 347.28 46.7713C347.033 39.3398 346.754 30.9167 351.292 24.8322C353.932 21.2918 358.905 19.0952 363.118 19.6069C366.206 19.9831 368.575 21.7764 369.789 24.6585C370.947 27.405 370.708 30.896 370.496 33.9757C370.418 35.1043 370.344 36.1708 370.336 37.1686C370.336 46.4684 370.901 54.8611 372.128 63.3399C373.037 59.8394 374.097 56.4185 375.147 53.1172C378.417 42.8467 382.63 36.4418 388.408 32.9651C391.057 31.3711 394.52 30.9024 397.668 31.709C400.362 32.3992 402.539 33.9726 403.799 36.1373C406.545 40.8573 403.533 46.1528 401.733 49.317C399.125 53.9031 397.451 58.9292 395.832 63.7895C395.39 65.1141 394.934 66.4818 394.464 67.8288L394.427 67.9356C397.332 63.4356 400.716 59.2544 404.556 55.8813C407.758 53.0678 413.113 50.6034 417.305 51.8436C419.682 52.5465 421.357 54.4052 422.151 57.2156C423.369 61.5339 420.621 65.7039 418.196 69.383C417.337 70.687 416.526 71.9192 415.93 73.086C415.061 74.7869 414.17 76.4638 413.307 78.085C410.059 84.1934 406.99 89.9639 405.144 96.8423C401.513 110.376 400.762 121.058 402.785 130.456C403.878 135.543 406.273 140.309 408.587 144.918L408.747 145.233C409.55 146.835 410.524 148.337 411.466 149.787C413.69 153.218 415.99 156.765 415.909 161.577C415.772 169.72 409.804 177.899 402.321 180.199C397.976 181.535 392.817 181.415 387.404 179.853C382.043 178.305 376.8 175.798 372.641 172.79C372.055 172.366 371.482 171.919 370.921 171.46C371.017 171.977 371.109 172.495 371.203 173.016C371.755 176.077 372.326 179.241 373.386 182.397C374.949 187.05 378.079 193.395 384.109 197.2C393.726 203.268 402.656 201.743 408.455 199.395C418.829 195.193 427.325 185.089 430.101 173.654C431.145 169.35 431.62 164.375 431.229 159.68C426.556 157.445 422.68 154.756 419.409 151.514C417.423 149.544 415.383 145.432 416.574 143.214C417.065 142.297 418.281 141.337 421.286 141.957C422.897 142.291 424.479 143.143 426.117 144.565C430.098 148.016 431.846 153.417 432.369 158.912C435.988 160.584 440.091 161.992 444.768 163.181C455.035 165.79 466.53 166.106 475.399 166.085C475.976 166.083 529.87 166.083 530.409 166.083C530.735 166.083 531 166.348 531 166.675C531 167.002 530.735 167.266 530.409 167.266C529.87 167.266 475.978 167.268 475.401 167.268C466.471 167.284 454.871 166.97 444.476 164.327C439.984 163.185 436.008 161.842 432.473 160.259C432.779 165.355 432.103 170.405 431.247 173.934C428.384 185.727 419.612 196.151 408.897 200.491C405.388 201.902 401.819 202.619 398.261 202.619ZM370.564 169.614C371.462 170.387 372.381 171.14 373.33 171.825C377.38 174.755 382.494 177.2 387.727 178.71C392.919 180.208 397.845 180.33 401.97 179.062C408.994 176.904 414.595 169.211 414.724 161.55C414.799 157.098 412.697 153.855 410.472 150.422C409.512 148.943 408.522 147.414 407.688 145.754L407.529 145.439C405.181 140.763 402.753 135.929 401.628 130.695C399.565 121.105 400.319 110.248 404.001 96.5267C405.882 89.5176 408.981 83.6913 412.262 77.5207C413.121 75.9043 414.01 74.2321 414.874 72.5393C415.501 71.3134 416.33 70.0557 417.208 68.7231C419.605 65.0854 422.083 61.325 421.011 57.5264C420.324 55.0907 418.965 53.5556 416.969 52.9658C413.374 51.9026 408.396 54.0689 405.335 56.7596C400.266 61.2119 396.004 67.1099 392.608 73.2821C391.886 75.5393 391.238 77.8299 390.783 80.1413C390.41 82.0351 390.163 83.9511 389.922 85.805C389.597 88.3236 389.259 90.9283 388.606 93.5203C388.045 95.7488 386.916 96.9475 385.517 96.8056C384.893 96.7435 384.375 96.4342 384.018 95.9146C383.282 94.8386 383.39 93.1154 383.707 91.9661C385.301 86.1972 387.925 79.3714 391.512 72.831C392.057 71.1349 392.642 69.4595 393.217 67.8081L393.35 67.4303C393.817 66.0929 394.271 64.7268 394.711 63.4069C396.348 58.4924 398.041 53.4105 400.706 48.724C402.971 44.742 404.996 40.5353 402.777 36.7223C401.677 34.8334 399.759 33.4561 397.375 32.844C394.525 32.1123 391.4 32.5331 389.017 33.9678C383.575 37.2436 379.405 43.6214 376.273 53.4663C374.954 57.6109 373.618 61.9435 372.597 66.3766C372.987 68.7773 373.432 71.1939 373.932 73.6471C374.046 74.2035 374.176 74.7662 374.304 75.3113C374.916 77.9399 375.55 80.6578 374.396 83.5064C373.464 85.8066 372.134 85.856 371.607 85.77C370.462 85.5835 369.622 84.3417 369.517 82.6791C369.308 79.3475 369.754 75.8055 370.191 72.7481C370.499 70.5929 370.91 68.4521 371.393 66.3384C369.856 56.825 369.155 47.5524 369.155 37.1543C369.165 36.1166 369.238 35.0326 369.318 33.8865C369.53 30.794 369.75 27.5963 368.702 25.1096C367.365 21.9374 364.851 21.0001 362.976 20.7721C359.157 20.3067 354.643 22.3088 352.239 25.5304C347.948 31.2834 348.22 39.4864 348.461 46.725C348.475 47.1538 348.49 47.5779 348.502 47.9955C348.56 49.8319 348.603 51.7017 348.646 53.5078C348.668 54.4467 348.691 55.3935 348.714 56.3452C349.695 57.3128 350.576 58.3633 351.353 59.4903C353.036 61.934 353.788 64.6024 353.473 67.0047C353.251 68.6912 352.401 69.171 351.915 69.3065C350.978 69.5679 349.881 69.0546 348.981 67.9308C347.921 66.6078 347.858 65.2576 347.793 63.8261L347.784 63.6077C347.677 61.3665 347.605 59.0981 347.546 56.8553C340.551 50.2447 329.524 48.8531 320.767 50.6464C316.626 51.4945 310.546 54.0003 305.649 57.638C305.935 58.0492 306.202 58.4701 306.454 58.9021C309.026 63.324 310.084 71.2911 307.312 76.4559C306.826 77.3613 306.247 78.128 305.581 78.7513C308.847 79.1116 310.934 77.1094 313.342 74.7996C313.562 74.5876 313.785 74.374 314.01 74.1604C320.147 68.3453 327.848 67.7937 335.143 72.6492C344.509 78.8836 345.305 92.1892 344.321 102.254C343.534 110.309 340.32 118.105 335.026 124.802C329.9 131.287 323.181 136.327 315.599 139.378C314.939 139.643 314.248 139.907 313.577 140.162C310.465 141.347 307.247 142.57 304.879 144.796C302.962 146.599 301.704 149.462 301.75 151.92C301.782 153.642 302.439 155.108 303.647 156.162C307.71 159.704 313.192 155.717 317.595 152.515C318.751 151.675 319.843 150.881 320.807 150.301C328.22 145.852 338.203 144.055 346.862 145.616C355.108 147.101 362.184 151.624 366.276 158.026C368.691 161.805 369.762 165.636 370.564 169.614ZM198.404 156.165C197.02 161.446 197.539 167.845 201.748 172.157C205.563 176.062 210.812 178.46 216.148 178.732C221.009 178.981 225.655 177.824 229.879 175.963C229.498 175.849 229.095 175.756 228.671 175.688C226.893 175.399 225.116 175.613 223.233 175.839C221.104 176.096 218.901 176.36 216.698 175.833C208.19 173.796 203.319 167.191 200.73 162.012C199.734 160.02 198.959 158.075 198.404 156.165ZM226.831 174.369C227.505 174.369 228.183 174.412 228.86 174.522C229.78 174.671 230.618 174.923 231.371 175.27C236.132 172.936 240.298 169.774 243.548 166.865C244.335 166.158 245.115 165.446 245.939 164.69C252.707 158.493 260.378 151.468 269.48 153.028C273.022 153.635 276.13 155.516 279.137 157.335C280.171 157.962 281.243 158.609 282.307 159.189C287.319 161.918 293.877 161.724 297.239 158.744C299.705 156.559 300.142 153.221 298.503 149.092C296.951 145.181 293.922 142.871 290.238 140.885C288.059 140.088 285.767 139.327 283.383 138.611C279.55 137.461 275.598 136.485 271.642 135.712C257.128 132.874 235.723 131.293 216.176 139.869C208.958 143.035 202.236 146.462 199.3 153.51C199.222 153.698 199.145 153.891 199.072 154.083C199.6 156.463 200.503 158.915 201.788 161.486C204.265 166.442 208.911 172.755 216.975 174.687C218.972 175.165 220.974 174.924 223.094 174.671C224.317 174.519 225.57 174.369 226.831 174.369ZM336.128 154.016C346.704 154.016 356.646 159.21 362.151 162.715C364.502 164.214 366.555 166.05 368.541 167.827C368.718 167.987 368.897 168.146 369.077 168.306C368.326 164.992 367.279 161.788 365.28 158.66C361.365 152.536 354.576 148.205 346.652 146.778C338.264 145.268 328.593 147.004 321.415 151.315C320.495 151.868 319.424 152.646 318.289 153.471C313.795 156.739 307.642 161.214 302.869 157.053C301.978 156.277 301.336 155.32 300.96 154.228C301.602 157.044 303.736 159.141 306.684 159.787C311.943 160.938 317.106 159.014 322.098 157.154C324.604 156.219 327.195 155.255 329.766 154.691C331.889 154.222 334.022 154.016 336.128 154.016ZM189.387 144.114C187.301 144.114 184.381 146.912 183.025 148.86C180.337 152.719 178.751 157.275 178.195 162.036C178.558 161.888 178.921 161.732 179.279 161.569C183.272 159.746 189.956 154.828 191.617 150.065C192.181 148.447 192.123 146.95 191.446 145.619C190.96 144.666 190.335 144.175 189.54 144.121C189.489 144.116 189.438 144.114 189.387 144.114ZM419.526 142.931C418.702 142.931 417.949 143.134 417.611 143.763C416.8 145.275 418.378 148.823 420.238 150.667C423.261 153.663 426.822 156.176 431.084 158.29C430.447 153.076 428.674 148.342 425.341 145.45C423.858 144.164 422.454 143.398 421.045 143.107C420.562 143.008 420.03 142.931 419.526 142.931ZM201.595 36.7398C199.805 36.7398 198.077 37.5177 196.44 39.0624C191.393 43.827 195.116 50.1108 198.399 55.6534C199.182 56.9748 199.922 58.223 200.505 59.393C205.289 68.9893 206.851 80.2162 207.748 89.9336C208.984 103.316 208.386 114.67 205.918 124.646C205.059 128.116 203.717 131.457 202.418 134.69C201.345 137.359 200.237 140.116 199.418 142.912C198.541 145.909 198.296 148.893 198.699 151.976C202.026 145.244 208.904 141.768 215.7 138.787C235.527 130.088 257.187 131.682 271.866 134.551C275.861 135.332 279.849 136.318 283.721 137.48C283.871 137.524 284.019 137.569 284.169 137.615C281.144 135.591 278.442 132.902 275.514 129.635C269.235 122.634 264.728 113.156 263.152 103.63C262.3 98.4937 262.347 93.5936 263.286 89.0665C264.315 84.1026 266.405 79.7109 269.496 76.0127C272.675 72.2125 278.522 68.5796 284.415 69.0307C287.95 69.3017 290.686 70.9292 292.326 73.7396C294.48 77.4282 296.072 79.6711 300.048 79.628C300.95 79.6201 301.771 79.4925 302.514 79.2423C300.689 78.5903 298.718 77.3948 297.657 75.2013C295.989 71.755 296.02 68.2321 297.749 64.7331C299.093 62.0153 301.355 59.5508 304.023 57.426C300.682 53.1858 295.328 50.2304 288.959 49.1847C282.223 48.0784 274.332 49.6597 267.605 53.4265C267.331 58.1146 266.601 62.4154 265.414 66.3065C264.982 67.7236 263.719 69.3862 262.143 69.823C261.156 70.0956 260.198 69.8453 259.374 69.0993C258.121 67.9659 257.571 66.4723 257.743 64.6582C258.178 60.037 263.254 54.6666 265.85 53.0837C266.053 52.961 266.257 52.8399 266.461 52.7203C266.821 45.3797 266.059 37.0746 264.175 27.8817C262.729 20.8232 259.989 16.7822 255.8 15.5293C252.467 14.5314 246.511 15.5883 245.132 19.4539C244.727 20.592 244.72 21.8832 244.747 23.109C244.788 24.9884 244.984 26.8901 245.172 28.7281C245.454 31.4779 245.746 34.3201 245.536 37.1575C245.19 41.8106 244.858 45.8387 244.225 49.9036C245.36 57.2745 245.509 64.9069 243.734 71.8952C243.363 73.3554 242.517 74.1668 241.528 74.0154C240.637 73.8783 240.081 73.0478 239.96 71.6769C239.515 66.6317 240.608 61.6486 241.667 56.8298C241.981 55.3967 242.308 53.9143 242.585 52.4621C242.749 51.6013 242.898 50.7469 243.031 49.894C241.817 42.1246 239.493 34.6405 237.194 28.5559C235.71 24.6234 233.697 20.2716 230.024 17.8072C227.983 16.4379 225.502 15.9134 223.212 16.3678C221.233 16.7599 219.608 17.8359 218.515 19.4778C216.079 23.1345 217.389 27.4066 218.658 31.5384C218.846 32.149 219.039 32.7802 219.215 33.3907C221.649 41.8934 224.166 52.9498 221.998 63.061L221.937 63.3367C221.901 63.5057 221.864 63.6715 221.829 63.8357C222.213 65.8378 222.505 67.9276 222.685 70.0318C222.694 70.1402 222.709 70.2741 222.725 70.4287C222.895 72.0483 223.211 75.0626 221.524 75.7401C220.813 76.0255 220.342 75.7577 220.123 75.5727C219.653 75.1726 218.419 74.1285 220.624 63.8245C220.152 61.4271 219.543 59.1683 218.826 57.1789C217.133 52.4939 210.61 38.7149 203.107 36.9279C202.596 36.8004 202.093 36.7398 201.595 36.7398ZM290.699 139.794C292.2 140.344 293.648 140.912 295.036 141.495C296.989 142.314 298.53 143.904 299.887 146.494C300.574 147.806 300.751 148.842 300.778 149.826C301.239 147.647 302.425 145.479 304.068 143.934C306.607 141.548 309.936 140.282 313.156 139.058C313.851 138.793 314.509 138.543 315.158 138.281C330.622 132.058 341.607 117.871 343.145 102.138C344.096 92.3965 343.368 79.542 334.487 73.6312C327.692 69.1088 320.525 69.6142 314.823 75.0164C314.6 75.2284 314.378 75.4404 314.16 75.6509C311.579 78.128 309.142 80.4665 305.155 79.8863C304.886 79.8464 304.588 79.7954 304.272 79.7301C303.075 80.4299 301.667 80.7901 300.059 80.806C295.111 80.8602 293.262 77.6849 291.306 74.331C289.851 71.8363 287.501 70.4478 284.326 70.2055C279.66 69.8469 273.934 72.5456 270.403 76.7667C258.275 91.2838 264.07 115.102 276.393 128.845C280.186 133.074 283.572 136.302 287.77 138.318C288.763 138.796 289.747 139.283 290.699 139.794ZM295.82 143.279C297.032 144.38 298.081 145.644 298.895 147.152C298.878 147.116 298.859 147.081 298.839 147.044C297.934 145.311 296.954 144.085 295.82 143.279ZM389.889 78.6589C387.686 83.4092 385.995 88.1228 384.847 92.2801C384.578 93.2541 384.543 94.5867 384.994 95.2466C385.153 95.481 385.357 95.6021 385.634 95.6308C386.741 95.7488 387.311 93.8231 387.46 93.2333C388.096 90.7084 388.429 88.1387 388.751 85.6552C388.993 83.7822 389.243 81.8454 389.624 79.915C389.706 79.4941 389.795 79.0749 389.889 78.6589ZM371.935 69.5026C371.718 70.6344 371.525 71.7725 371.363 72.9123C370.936 75.9123 370.496 79.3842 370.698 82.6026C370.775 83.8109 371.309 84.5234 371.798 84.6015C372.308 84.6844 372.884 84.0946 373.303 83.0616C374.317 80.5606 373.752 78.1408 373.155 75.5775C373.025 75.0244 372.893 74.4537 372.775 73.8815C372.475 72.4117 372.195 70.9532 371.935 69.5026ZM304.712 58.3601C302.195 60.3734 300.068 62.6975 298.806 65.2544C297.245 68.4106 297.217 71.5828 298.717 74.6849C299.831 76.9867 302.197 78.0133 304.055 78.4707C304.94 77.8602 305.675 77.0042 306.269 75.8963C308.85 71.0918 307.844 63.6428 305.433 59.4967C305.208 59.1093 304.967 58.7299 304.712 58.3601ZM221.174 67.1274C220.008 73.6678 220.778 74.5733 220.887 74.6641C220.923 74.6944 221.027 74.6609 221.084 74.637C221.655 74.4091 221.811 73.0318 221.55 70.5451C221.532 70.3825 221.518 70.2406 221.508 70.1258C221.421 69.1216 221.309 68.1189 221.174 67.1274ZM243.535 53.7405C243.307 54.8611 243.062 55.9833 242.821 57.0785C241.782 61.8096 240.707 66.7034 241.136 71.5685C241.185 72.1232 241.364 72.7911 241.708 72.8437C242.067 72.8995 242.422 72.2603 242.59 71.6004C244.029 65.9255 244.17 59.8011 243.535 53.7405ZM266.375 54.1438C263.99 55.6502 259.305 60.6444 258.916 64.765C258.781 66.2076 259.189 67.3362 260.164 68.2193C260.689 68.6944 261.232 68.8442 261.827 68.68C262.938 68.3724 263.949 67.0541 264.283 65.9574C265.377 62.3739 266.074 58.4302 266.375 54.1438ZM348.764 58.105C348.816 59.9207 348.879 61.7475 348.965 63.5519L348.974 63.7719C349.035 65.1109 349.084 66.1694 349.904 67.1912C350.473 67.9005 351.155 68.2927 351.598 68.1683C351.947 68.0711 352.204 67.5897 352.301 66.8501C352.578 64.7395 351.896 62.3628 350.379 60.1598C349.88 59.4313 349.339 58.7474 348.764 58.105Z" fill="#171717"></path> </svg> 