<?xml version="1.0" encoding="UTF-8"?> <svg xmlns="http://www.w3.org/2000/svg" width="158" height="62" viewBox="0 0 158 62" fill="none"> <path d="M74.1551 29.9433V48.0953H68.3945V3.27051H83.6662C87.5366 3.27051 90.8369 4.56065 93.5372 7.14093C96.2975 9.7212 97.6776 12.8715 97.6776 16.5919C97.6776 20.4023 96.2975 23.5527 93.5372 26.1029C90.8669 28.6532 87.5666 29.9133 83.6662 29.9133H74.1551V29.9433ZM74.1551 8.7911V24.4228H83.7862C86.0664 24.4228 87.9866 23.6427 89.4868 22.1125C91.0169 20.5824 91.797 18.7221 91.797 16.6219C91.797 14.5517 91.0169 12.7215 89.4868 11.1914C87.9866 9.60119 86.0964 8.8211 83.7862 8.8211H74.1551V8.7911Z" fill="white"></path> <path d="M112.739 16.4121C116.999 16.4121 120.36 17.5522 122.82 19.8325C125.28 22.1127 126.51 25.233 126.51 29.1935V48.0955H121.02V43.835H120.78C118.409 47.3454 115.229 49.0856 111.269 49.0856C107.878 49.0856 105.058 48.0955 102.778 46.0853C100.498 44.075 99.3574 41.5848 99.3574 38.5845C99.3574 35.4041 100.558 32.8839 102.958 31.0237C105.358 29.1335 108.568 28.2034 112.559 28.2034C115.979 28.2034 118.799 28.8334 120.99 30.0936V28.7734C120.99 26.7632 120.21 25.083 118.619 23.6729C117.029 22.2627 115.169 21.5727 113.039 21.5727C109.829 21.5727 107.278 22.9228 105.418 25.6531L100.348 22.4727C103.138 18.4223 107.278 16.4121 112.739 16.4121ZM105.298 38.6745C105.298 40.1746 105.928 41.4348 107.218 42.4249C108.478 43.415 109.979 43.925 111.689 43.925C114.119 43.925 116.279 43.0249 118.169 41.2247C120.06 39.4245 121.02 37.3243 121.02 34.8941C119.22 33.4839 116.729 32.7638 113.519 32.7638C111.179 32.7638 109.228 33.3339 107.668 34.444C106.078 35.6141 105.298 37.0243 105.298 38.6745Z" fill="white"></path> <path d="M157.834 17.4023L138.632 61.567H132.691L139.832 46.1154L127.171 17.4023H133.442L142.563 39.4247H142.683L151.563 17.4023H157.834Z" fill="white"></path> <path d="M51.2409 26.2825C51.2409 24.4043 51.0729 22.6071 50.7608 20.8789H26.6143V30.78L40.5207 30.783C39.9567 34.0773 38.1415 36.8856 35.3602 38.7578V45.1815H43.6381C48.4716 40.708 51.2409 34.0953 51.2409 26.2825Z" fill="#4285F4"></path> <path d="M35.3638 38.7582C33.0595 40.3123 30.0922 41.2214 26.6208 41.2214C19.9151 41.2214 14.2265 36.703 12.1893 30.6123H3.65039V37.237C7.88084 45.6319 16.5758 51.3925 26.6208 51.3925C33.5636 51.3925 39.3962 49.1093 43.6416 45.1789L35.3638 38.7582Z" fill="#34A853"></path> <path d="M11.3851 25.6975C11.3851 23.9873 11.6701 22.3341 12.1892 20.78V14.1553H3.65028C1.90109 17.6266 0.916992 21.5451 0.916992 25.6975C0.916992 29.8499 1.90409 33.7684 3.65028 37.2397L12.1892 30.615C11.6701 29.0609 11.3851 27.4077 11.3851 25.6975Z" fill="#FABB05"></path> <path d="M26.6208 10.1711C30.4102 10.1711 33.8036 11.4762 36.4829 14.0265L43.8187 6.69671C39.3632 2.54727 33.5546 0 26.6208 0C16.5788 0 7.88084 5.76061 3.65039 14.1555L12.1893 20.7802C14.2265 14.6896 19.9151 10.1711 26.6208 10.1711Z" fill="#E94235"></path> </svg> 