<?xml version="1.0" encoding="UTF-8"?> <svg xmlns="http://www.w3.org/2000/svg" xmlns:xlink="http://www.w3.org/1999/xlink" width="500" zoomAndPan="magnify" viewBox="0 0 375 37.5" height="50" preserveAspectRatio="xMidYMid meet"> <defs> <g></g> </defs> <g fill="#ffffff" fill-opacity="1"> <g transform="translate(8.457545, 28.125)"> <g> <path d="M 0.941406 -20.28125 C 0.941406 -19.976562 1.113281 -19.820312 1.386719 -19.820312 L 7.558594 -19.820312 L 7.558594 -0.433594 C 7.558594 -0.128906 7.71875 0.0273438 8.007812 0.0273438 L 9.527344 0.0273438 C 9.816406 0.0273438 9.972656 -0.128906 9.972656 -0.433594 L 9.972656 -19.820312 L 16.191406 -19.820312 C 16.449219 -19.820312 16.609375 -19.992188 16.609375 -20.28125 L 16.609375 -21.523438 C 16.609375 -21.800781 16.449219 -21.957031 16.191406 -21.957031 L 1.386719 -21.957031 C 1.097656 -21.957031 0.941406 -21.800781 0.941406 -21.523438 Z M 0.941406 -20.28125 "></path> </g> </g> <g transform="translate(26.006758, 28.125)"> <g> <path d="M 18.632812 -2.3125 L 5.523438 -2.3125 L 5.523438 -8.339844 L 16.046875 -8.339844 C 16.40625 -8.339844 16.625 -8.515625 16.625 -8.789062 L 16.625 -10.105469 C 16.625 -10.40625 16.40625 -10.582031 16.046875 -10.582031 L 5.523438 -10.582031 L 5.523438 -19.660156 L 18.429688 -19.660156 C 18.75 -19.660156 18.9375 -19.832031 18.9375 -20.121094 L 18.9375 -21.523438 C 18.9375 -21.785156 18.75 -21.957031 18.429688 -21.957031 L 3.570312 -21.957031 C 3.238281 -21.957031 3.109375 -21.8125 3.109375 -21.511719 L 3.109375 -0.460938 C 3.109375 -0.144531 3.238281 0 3.570312 0 L 18.75 0 C 19.050781 0 19.253906 -0.171875 19.253906 -0.449219 L 19.253906 -1.777344 C 19.253906 -2.109375 19.007812 -2.3125 18.632812 -2.3125 Z M 18.632812 -2.3125 "></path> </g> </g> <g transform="translate(46.750679, 28.125)"> <g> <path d="M 0.941406 -20.28125 C 0.941406 -19.976562 1.113281 -19.820312 1.386719 -19.820312 L 7.558594 -19.820312 L 7.558594 -0.433594 C 7.558594 -0.128906 7.71875 0.0273438 8.007812 0.0273438 L 9.527344 0.0273438 C 9.816406 0.0273438 9.972656 -0.128906 9.972656 -0.433594 L 9.972656 -19.820312 L 16.191406 -19.820312 C 16.449219 -19.820312 16.609375 -19.992188 16.609375 -20.28125 L 16.609375 -21.523438 C 16.609375 -21.800781 16.449219 -21.957031 16.191406 -21.957031 L 1.386719 -21.957031 C 1.097656 -21.957031 0.941406 -21.800781 0.941406 -21.523438 Z M 0.941406 -20.28125 "></path> </g> </g> <g transform="translate(64.299892, 28.125)"> <g> <path d="M 18.171875 -21.972656 L 10.640625 -21.972656 C 5.695312 -21.972656 2.109375 -18.503906 2.109375 -13.71875 C 2.109375 -10.640625 3.644531 -8.125 6.070312 -6.738281 L 2.992188 -0.519531 C 2.847656 -0.230469 2.976562 0.0273438 3.296875 0.0273438 L 5.046875 0.0273438 C 5.234375 0.0273438 5.449219 -0.128906 5.550781 -0.347656 L 8.226562 -5.882812 C 8.976562 -5.695312 9.785156 -5.59375 10.640625 -5.59375 L 16.21875 -5.59375 L 16.21875 -0.433594 C 16.21875 -0.144531 16.394531 0.0273438 16.667969 0.0273438 L 18.171875 0.0273438 C 18.460938 0.0273438 18.632812 -0.144531 18.632812 -0.433594 L 18.632812 -21.523438 C 18.632812 -21.785156 18.460938 -21.972656 18.171875 -21.972656 Z M 10.785156 -7.648438 C 7.125 -7.648438 4.523438 -10.191406 4.523438 -13.734375 C 4.523438 -17.261719 7.226562 -19.820312 10.785156 -19.820312 L 16.21875 -19.820312 L 16.21875 -7.648438 Z M 10.785156 -7.648438 "></path> </g> </g> <g transform="translate(86.041256, 28.125)"> <g> <path d="M 21.019531 -22 L 19.328125 -22 C 19.097656 -22 18.964844 -21.871094 18.964844 -21.640625 L 18.964844 -9.742188 L 5.523438 -9.742188 L 5.523438 -21.640625 C 5.523438 -21.871094 5.390625 -22 5.160156 -22 L 3.484375 -22 C 3.238281 -22 3.109375 -21.871094 3.109375 -21.640625 L 3.109375 -0.332031 C 3.109375 -0.101562 3.238281 0.0273438 3.484375 0.0273438 L 5.160156 0.0273438 C 5.390625 0.0273438 5.523438 -0.101562 5.523438 -0.332031 L 5.523438 -7.605469 L 18.964844 -7.605469 L 18.964844 -0.332031 C 18.964844 -0.101562 19.097656 0.0273438 19.328125 0.0273438 L 21.019531 0.0273438 C 21.25 0.0273438 21.394531 -0.101562 21.394531 -0.332031 L 21.394531 -21.640625 C 21.394531 -21.871094 21.25 -22 21.019531 -22 Z M 21.019531 -22 "></path> </g> </g> <g transform="translate(110.543658, 28.125)"> <g> <path d="M 20.410156 -0.519531 L 11.1875 -21.726562 C 11.085938 -21.972656 10.871094 -22.144531 10.652344 -22.144531 L 10.539062 -22.144531 C 10.320312 -22.144531 10.105469 -21.988281 10.003906 -21.742188 L 0.78125 -0.535156 C 0.636719 -0.1875 0.78125 0.0273438 1.15625 0.0273438 L 2.832031 0.0273438 C 3.050781 0.0273438 3.238281 -0.144531 3.324219 -0.363281 L 4.480469 -3.152344 L 16.695312 -3.152344 L 17.867188 -0.347656 C 17.953125 -0.128906 18.128906 0.0429688 18.34375 0.0429688 L 20.050781 0.0429688 C 20.410156 0.0429688 20.554688 -0.203125 20.410156 -0.519531 Z M 5.363281 -5.277344 L 10.597656 -17.839844 L 15.816406 -5.277344 Z M 5.363281 -5.277344 "></path> </g> </g> </g> <g fill="#ffffff" fill-opacity="1"> <g transform="translate(131.735706, 28.125)"> <g></g> </g> </g> <g fill="#ffffff" fill-opacity="1"> <g transform="translate(140.365755, 28.125)"> <g> <path d="M 19.789062 -21.957031 L 3.484375 -21.957031 C 3.238281 -21.957031 3.109375 -21.84375 3.109375 -21.597656 L 3.109375 -0.332031 C 3.109375 -0.101562 3.238281 0.0273438 3.484375 0.0273438 L 5.160156 0.0273438 C 5.390625 0.0273438 5.523438 -0.101562 5.523438 -0.332031 L 5.523438 -19.644531 L 17.738281 -19.644531 L 17.738281 -0.332031 C 17.738281 -0.101562 17.882812 0.0273438 18.113281 0.0273438 L 19.789062 0.0273438 C 20.019531 0.0273438 20.164062 -0.101562 20.164062 -0.332031 L 20.164062 -21.597656 C 20.164062 -21.84375 20.019531 -21.957031 19.789062 -21.957031 Z M 19.789062 -21.957031 "></path> </g> </g> <g transform="translate(163.639423, 28.125)"> <g> <path d="M 1.546875 -10.929688 C 1.546875 -4.597656 6.535156 0.304688 12.867188 0.304688 C 19.210938 0.304688 24.199219 -4.597656 24.199219 -10.929688 C 24.199219 -17.273438 19.210938 -22.246094 12.867188 -22.246094 C 6.535156 -22.246094 1.546875 -17.273438 1.546875 -10.929688 Z M 3.960938 -10.929688 C 3.960938 -15.929688 7.878906 -19.832031 12.867188 -19.832031 C 17.867188 -19.832031 21.785156 -15.929688 21.785156 -10.929688 C 21.785156 -5.96875 17.867188 -2.109375 12.867188 -2.109375 C 7.878906 -2.109375 3.960938 -5.96875 3.960938 -10.929688 Z M 3.960938 -10.929688 "></path> </g> </g> <g transform="translate(189.385015, 28.125)"> <g> <path d="M 21.988281 -2.152344 L 19.804688 -2.152344 L 19.804688 -21.480469 C 19.804688 -21.726562 19.628906 -21.871094 19.398438 -21.871094 L 6.5625 -21.871094 C 6.359375 -21.871094 6.203125 -21.726562 6.1875 -21.480469 L 5.722656 -16.074219 C 5.261719 -10.507812 3.816406 -4.582031 2.3125 -2.152344 L 0.5625 -2.152344 C 0.261719 -2.152344 0.171875 -1.9375 0.171875 -1.777344 L 0.171875 3.585938 C 0.171875 3.886719 0.375 4.003906 0.507812 4.003906 L 2.050781 4.003906 C 2.296875 4.003906 2.441406 3.816406 2.441406 3.585938 L 2.441406 0.0859375 L 20.109375 0.0859375 L 20.109375 3.585938 C 20.109375 3.816406 20.253906 4.003906 20.5 4.003906 L 22.046875 4.003906 C 22.175781 4.003906 22.378906 3.886719 22.378906 3.585938 L 22.378906 -1.777344 C 22.378906 -1.9375 22.289062 -2.152344 21.988281 -2.152344 Z M 17.390625 -2.152344 L 4.957031 -2.152344 C 6.359375 -4.597656 7.71875 -10.261719 8.125 -15.902344 L 8.425781 -19.703125 L 17.390625 -19.703125 Z M 17.390625 -2.152344 "></path> </g> </g> <g transform="translate(212.615316, 28.125)"> <g> <path d="M 1.546875 -10.929688 C 1.546875 -4.597656 6.535156 0.304688 12.867188 0.304688 C 19.210938 0.304688 24.199219 -4.597656 24.199219 -10.929688 C 24.199219 -17.273438 19.210938 -22.246094 12.867188 -22.246094 C 6.535156 -22.246094 1.546875 -17.273438 1.546875 -10.929688 Z M 3.960938 -10.929688 C 3.960938 -15.929688 7.878906 -19.832031 12.867188 -19.832031 C 17.867188 -19.832031 21.785156 -15.929688 21.785156 -10.929688 C 21.785156 -5.96875 17.867188 -2.109375 12.867188 -2.109375 C 7.878906 -2.109375 3.960938 -5.96875 3.960938 -10.929688 Z M 3.960938 -10.929688 "></path> </g> </g> <g transform="translate(238.360907, 28.125)"> <g> <path d="M 6.546875 -21.394531 C 6.101562 -11.464844 5.046875 -2.167969 1.039062 -2.167969 L 0.621094 -2.167969 C 0.347656 -2.167969 0.171875 -2.023438 0.171875 -1.777344 L 0.171875 -0.347656 C 0.171875 -0.128906 0.375 0.0429688 0.664062 0.0859375 C 0.796875 0.117188 1.054688 0.128906 1.328125 0.128906 C 7.082031 0.128906 8.09375 -10.277344 8.730469 -19.804688 L 17.535156 -19.832031 L 17.535156 -0.476562 C 17.535156 -0.1875 17.707031 0 17.96875 0 L 19.542969 0 C 19.789062 0 19.949219 -0.171875 19.949219 -0.460938 L 19.949219 -21.496094 C 19.949219 -21.828125 19.730469 -22 19.429688 -22 L 7.140625 -21.972656 C 6.824219 -21.972656 6.5625 -21.699219 6.546875 -21.394531 Z M 6.546875 -21.394531 "></path> </g> </g> <g transform="translate(261.403284, 28.125)"> <g> <path d="M 11.566406 -13.804688 L 5.523438 -13.804688 L 5.523438 -21.523438 C 5.523438 -21.800781 5.347656 -21.988281 5.074219 -21.988281 L 3.570312 -21.988281 C 3.28125 -21.988281 3.109375 -21.800781 3.109375 -21.523438 L 3.109375 -0.449219 C 3.109375 -0.1875 3.296875 0 3.570312 0 C 3.859375 0 4.265625 0 4.613281 0 L 11.550781 0 C 15.800781 0 18.878906 -2.964844 18.878906 -7.082031 C 18.878906 -10.898438 15.886719 -13.804688 11.566406 -13.804688 Z M 11.550781 -2.152344 L 5.523438 -2.152344 L 5.523438 -11.652344 L 11.550781 -11.652344 C 14.425781 -11.652344 16.507812 -9.699219 16.507812 -7.082031 C 16.507812 -4.222656 14.425781 -2.152344 11.550781 -2.152344 Z M 11.550781 -2.152344 "></path> </g> </g> <g transform="translate(281.756901, 28.125)"> <g> <path d="M 18.417969 -4.105469 C 16.882812 -2.789062 14.847656 -2.109375 12.996094 -2.109375 C 8.007812 -2.109375 3.960938 -6.011719 3.960938 -10.957031 C 3.960938 -15.902344 7.980469 -19.832031 12.996094 -19.832031 C 14.917969 -19.832031 16.882812 -19.195312 18.445312 -17.824219 C 18.75 -17.5625 19.023438 -17.679688 19.125 -17.824219 L 20.035156 -19.183594 C 20.136719 -19.328125 20.164062 -19.574219 19.847656 -19.832031 C 17.96875 -21.421875 15.335938 -22.246094 12.996094 -22.246094 C 6.621094 -22.246094 1.546875 -17.273438 1.546875 -10.957031 C 1.546875 -4.65625 6.621094 0.304688 12.996094 0.304688 C 15.394531 0.304688 17.96875 -0.578125 19.789062 -2.109375 C 20.035156 -2.285156 20.121094 -2.574219 20.007812 -2.730469 L 19.109375 -4.105469 C 18.953125 -4.292969 18.648438 -4.292969 18.417969 -4.105469 Z M 18.417969 -4.105469 "></path> </g> </g> <g transform="translate(303.556088, 28.125)"> <g> <path d="M 11.566406 -13.804688 L 5.523438 -13.804688 L 5.523438 -21.523438 C 5.523438 -21.800781 5.347656 -21.988281 5.074219 -21.988281 L 3.570312 -21.988281 C 3.28125 -21.988281 3.109375 -21.800781 3.109375 -21.523438 L 3.109375 -0.449219 C 3.109375 -0.1875 3.296875 0 3.570312 0 C 3.859375 0 4.265625 0 4.613281 0 L 11.550781 0 C 15.800781 0 18.878906 -2.964844 18.878906 -7.082031 C 18.878906 -10.898438 15.886719 -13.804688 11.566406 -13.804688 Z M 11.550781 -2.152344 L 5.523438 -2.152344 L 5.523438 -11.652344 L 11.550781 -11.652344 C 14.425781 -11.652344 16.507812 -9.699219 16.507812 -7.082031 C 16.507812 -4.222656 14.425781 -2.152344 11.550781 -2.152344 Z M 11.550781 -2.152344 "></path> </g> </g> <g transform="translate(323.909706, 28.125)"> <g> <path d="M 20.398438 -0.550781 L 10.785156 -13.199219 L 17.230469 -21.394531 C 17.417969 -21.65625 17.316406 -21.972656 16.972656 -21.972656 L 15.003906 -21.972656 C 14.800781 -21.972656 14.558594 -21.929688 14.367188 -21.65625 L 8.515625 -14.078125 L 5.523438 -14.078125 L 5.523438 -21.640625 C 5.523438 -21.871094 5.378906 -22 5.144531 -22 L 3.453125 -22 C 3.222656 -22 3.109375 -21.871094 3.109375 -21.640625 L 3.109375 -0.332031 C 3.109375 -0.101562 3.222656 0.0273438 3.453125 0.0273438 L 5.144531 0.0273438 C 5.378906 0.0273438 5.523438 -0.101562 5.523438 -0.332031 L 5.523438 -11.910156 L 8.847656 -11.910156 L 17.722656 -0.230469 C 17.867188 -0.0585938 18.039062 0.0273438 18.214844 0.0273438 L 20.136719 0.0273438 C 20.46875 0.0273438 20.585938 -0.304688 20.398438 -0.550781 Z M 20.398438 -0.550781 "></path> </g> </g> <g transform="translate(345.347501, 28.125)"> <g> <path d="M 20.410156 -0.519531 L 11.1875 -21.726562 C 11.085938 -21.972656 10.871094 -22.144531 10.652344 -22.144531 L 10.539062 -22.144531 C 10.320312 -22.144531 10.105469 -21.988281 10.003906 -21.742188 L 0.78125 -0.535156 C 0.636719 -0.1875 0.78125 0.0273438 1.15625 0.0273438 L 2.832031 0.0273438 C 3.050781 0.0273438 3.238281 -0.144531 3.324219 -0.363281 L 4.480469 -3.152344 L 16.695312 -3.152344 L 17.867188 -0.347656 C 17.953125 -0.128906 18.128906 0.0429688 18.34375 0.0429688 L 20.050781 0.0429688 C 20.410156 0.0429688 20.554688 -0.203125 20.410156 -0.519531 Z M 5.363281 -5.277344 L 10.597656 -17.839844 L 15.816406 -5.277344 Z M 5.363281 -5.277344 "></path> </g> </g> </g> </svg> 