<?xml version="1.0" encoding="UTF-8"?> <svg xmlns="http://www.w3.org/2000/svg" width="618" height="216" viewBox="0 0 618 216" fill="none"> <rect width="618" height="216" fill="white"></rect> <path d="M266.064 199.793C263.006 199.793 259.856 199.323 256.684 198.393L255.79 198.13C253.97 197.593 252.086 197.039 250.221 196.574C249.679 196.439 249.166 196.275 248.669 196.116C247.512 195.746 246.418 195.395 245.161 195.476C244.908 195.493 244.634 195.523 244.345 195.556C243.284 195.675 242.082 195.812 241.105 195.293C240.324 194.878 239.691 194.115 239.494 193.35C239.347 192.777 239.436 192.218 239.751 191.735C240.903 189.974 244.084 189.359 245.983 188.993L246.029 188.985C248.062 188.592 250.141 188.478 251.724 188.421C253.964 188.341 256.574 188.139 258.953 187.242C260.251 186.752 261.066 185.637 261.928 184.455C262.334 183.899 262.754 183.324 263.234 182.809C265.101 180.806 267.778 179.812 270.052 180.275C270.593 180.385 271.103 180.577 271.597 180.762C271.941 180.892 272.266 181.013 272.6 181.109C274.954 181.79 277.646 180.636 280.022 179.619C280.497 179.415 280.944 179.224 281.387 179.047C283.584 178.168 285.795 177.21 287.931 176.284C290.003 175.387 292.145 174.459 294.278 173.602C296.888 172.552 299.083 171.762 301.188 171.116C302.906 170.587 304.707 170.586 306.449 170.585C307.204 170.585 307.987 170.583 308.734 170.538C309.814 170.472 310.917 170.494 311.985 170.516C312.509 170.527 313.05 170.538 313.577 170.538C315.483 170.538 317.422 170.545 319.296 170.552C322.893 170.564 326.612 170.578 330.271 170.542C330.712 170.538 331.166 170.558 331.646 170.58C333.731 170.677 335.889 170.776 336.666 168.723C337.512 166.489 337.423 163.696 337.336 160.994C337.318 160.443 337.301 159.906 337.292 159.383C336.246 160.066 335.458 161.097 335.086 162.649C335.012 162.96 334.942 163.283 334.875 163.597C334.547 165.119 334.21 166.693 333.127 167.874C331.503 169.646 328.951 169.811 326.477 169.829L310.96 169.941C310.1 169.946 309.242 169.952 308.382 169.956C306.684 169.965 304.929 169.975 303.204 169.996C301.976 170.011 300.802 170.271 299.556 170.546C298.76 170.722 297.936 170.904 297.097 171.017C291.097 171.819 284.819 171.846 278.748 171.874C276.165 171.885 273.494 171.897 270.906 171.97C269.291 172.015 267.28 172.072 265.61 171.19C263.931 170.304 263.015 168.456 262.809 165.542C262.769 164.981 262.726 164.416 262.684 163.849C262.52 161.697 262.351 159.474 262.351 157.307C262.316 156.746 262.19 156.362 261.982 156.197C261.842 156.086 261.639 156.054 261.363 156.101C260.288 156.284 259.43 156.811 258.867 157.626C259.27 157.856 259.61 158.129 259.888 158.446C260.385 159.015 260.653 159.639 260.912 160.243C260.957 160.349 261.002 160.455 261.049 160.562C261.363 161.275 261.605 162.073 261.789 163.003C262.059 164.363 262.303 165.816 262.264 167.232C262.259 167.419 262.205 168.359 261.631 168.522C261.422 168.581 261.108 168.554 260.797 168.083C259.265 165.764 258.252 163.693 257.614 161.569C257.245 160.341 257.289 159.082 257.725 158.012C257.178 157.815 256.523 157.677 255.757 157.596C254.252 157.435 252.723 157.633 251.159 157.869C247.49 158.42 243.204 159.25 239.252 161.205C235.682 162.971 232.662 165.712 231.176 168.536C229.305 172.092 231.907 176.304 233.09 177.924C237.097 178.451 240.956 179.579 244.276 182.311C244.346 182.369 244.43 182.435 244.525 182.511C245.298 183.122 246.593 184.144 246.666 185.245C246.693 185.66 246.541 186.051 246.226 186.375C245.642 186.974 244.687 186.788 244.375 186.728C242.218 186.307 240.557 185.24 238.799 184.111L238.417 183.865C236.558 182.676 234.867 181.243 233.393 179.607C233.15 179.337 232.908 179.048 232.674 178.744C232.663 178.73 232.652 178.715 232.641 178.701C230.395 178.424 228.099 178.329 225.831 178.235C218.746 177.941 178.618 191.735 175.611 188.421C172.034 184.478 116.224 203.226 120.203 199.091C120.361 198.928 120.037 197.721 120.201 197.88C120.364 198.038 120.37 198.299 120.212 198.463C116.552 202.264 172.283 183.576 175.611 187.242C178.939 190.909 209.387 178.44 225.864 177.411C227.903 177.496 229.963 177.582 231.995 177.796C230.634 175.751 228.572 171.715 230.446 168.154C232.01 165.181 235.166 162.307 238.886 160.467C242.942 158.461 247.304 157.617 251.037 157.054C252.656 156.811 254.242 156.606 255.845 156.778C256.721 156.871 257.474 157.036 258.109 157.277C258.789 156.222 259.892 155.517 261.223 155.29C261.736 155.202 262.164 155.292 262.494 155.555C262.904 155.881 263.127 156.443 263.173 157.276C263.173 157.284 263.173 157.291 263.173 157.299C263.173 159.438 263.341 161.65 263.504 163.791C263.546 164.359 263.59 164.926 263.63 165.489C263.817 168.132 264.568 169.712 265.994 170.465C267.473 171.245 269.283 171.194 270.882 171.15C273.479 171.077 276.155 171.065 278.743 171.054C284.788 171.026 291.039 170.999 296.987 170.203C297.791 170.096 298.598 169.917 299.378 169.745C300.609 169.473 301.88 169.192 303.193 169.176C304.92 169.155 306.677 169.146 308.376 169.136C309.235 169.132 310.095 169.126 310.953 169.121L326.47 169.009C328.762 168.993 331.117 168.85 332.518 167.321C333.449 166.306 333.763 164.844 334.067 163.429C334.136 163.111 334.206 162.781 334.283 162.462C334.77 160.434 335.868 159.186 337.286 158.426C337.288 158.251 337.29 158.076 337.296 157.904C337.359 155.616 338.639 155.355 339.994 155.079C339.999 155.077 340.006 155.076 340.012 155.074C340.558 154.602 341.185 154.234 341.799 153.872C342.119 153.683 342.452 153.488 342.759 153.285C345.147 151.702 346.625 149.047 346.526 146.521C346.439 144.338 345.079 142.331 343.264 141.45C345.052 143.529 345.857 146.191 345.392 148.709C344.874 151.517 342.227 153.456 339.922 154.337C337.666 155.198 336.272 155.172 334.509 155.139C333.912 155.128 333.295 155.116 332.578 155.136C331.007 155.18 329.534 154.763 328.823 154.071C328.516 153.773 328.354 153.428 328.354 153.07C328.354 152.855 328.406 152.661 328.506 152.498C328.146 152.392 327.827 152.251 327.583 152.068C327.169 151.757 327.065 151.398 327.049 151.151C327.023 150.724 327.158 150.353 327.44 150.075C327.518 149.998 327.605 149.93 327.701 149.87C327.366 149.768 327.095 149.651 326.928 149.516C326.499 149.171 326.278 148.696 326.308 148.182C326.337 147.681 326.611 147.208 327.023 146.949C327.336 146.752 327.893 146.671 328.528 146.656C328.482 146.608 328.44 146.557 328.402 146.505C328.197 146.216 328.136 145.884 328.227 145.545C328.443 144.729 329.372 144.317 330.835 144.382C331.3 144.403 331.752 144.487 332.189 144.568C332.565 144.637 332.918 144.703 333.277 144.73C334.862 144.855 336.488 144.177 337.517 142.964C338.546 141.75 338.948 140.036 338.567 138.491C338.507 138.246 338.428 138.005 338.346 137.751C338.197 137.296 338.043 136.824 337.996 136.317C337.916 135.466 338.227 134.431 339.105 134.043C339.342 133.939 339.556 133.891 339.746 133.882C339.779 133.1 339.83 132.297 339.884 131.473C340.082 128.403 340.285 125.229 339.49 122.512C338.381 118.724 335.582 118.459 332.038 118.123C331.803 118.101 331.566 118.079 331.328 118.054C328.964 117.819 326.511 117.83 324.14 117.84C323.639 117.842 323.138 117.844 322.639 117.844H289.786C287.314 117.844 284.826 117.712 282.42 117.582C280.01 117.455 277.517 117.321 275.034 117.321H265.282C265.271 117.321 265.259 117.321 265.248 117.32C264.055 117.221 263.158 117.472 262.509 118.09C260.956 119.564 261.059 122.919 261.141 125.614C261.172 126.603 261.201 127.539 261.144 128.287C261.015 130.022 260.209 130.991 259.275 132.11C259.032 132.402 258.781 132.703 258.528 133.035C257.761 134.038 256.893 134.976 256.054 135.883C254.913 137.115 253.733 138.391 252.832 139.815C251.766 141.5 250.935 143.96 251.489 146.132C251.691 143.968 252.478 141.838 253.75 140.09C254.658 138.841 255.79 137.787 256.885 136.767C257.635 136.066 258.214 135.11 258.774 134.186C258.975 133.853 259.184 133.51 259.396 133.185C259.646 132.802 259.989 132.278 260.575 132.072C261.264 131.83 261.807 131.889 262.19 132.247C263.074 133.073 262.631 135.221 262.081 137.213C262.047 137.335 262.019 137.437 261.999 137.516C261.417 139.773 262.367 141.32 264.747 141.988C265.75 142.27 266.821 142.4 267.854 142.525C268.511 142.605 269.191 142.686 269.858 142.807C271.381 143.082 272.209 143.735 272.132 144.599C272.091 145.051 271.908 145.367 271.608 145.589C272.987 145.88 273.143 146.784 273.156 147.091C273.179 147.674 272.976 148.198 272.612 148.494C272.464 148.615 272.296 148.717 272.112 148.802C272.568 149.02 272.85 149.405 272.934 149.937C273.032 150.559 272.557 151.192 272.061 151.42C271.557 151.652 271.113 151.804 270.737 151.872C270.58 151.901 270.334 151.929 270.034 151.957C270.542 152.32 270.686 153.159 270.337 153.729C269.668 154.818 267.374 154.948 266.141 155.018C265.988 155.026 265.859 155.034 265.76 155.043C264.817 155.12 263.849 155.14 262.88 155.103C259.595 154.978 256.339 154.204 253.463 152.866C246.96 149.841 245.568 142.75 247.073 137.064C247.941 133.787 249.564 130.755 251.136 127.824C251.445 127.246 251.755 126.668 252.059 126.089C254.803 120.855 257.132 115.35 258.982 109.724C259.94 106.806 260.645 103.8 261.324 100.893C261.917 98.3578 262.531 95.737 263.314 93.1671C264.105 90.5724 265.088 87.5843 266.759 84.9704C270.12 79.7081 275.016 78.342 280.201 76.8947C280.838 76.7172 281.497 76.5329 282.156 76.3417C284.407 75.6868 286.748 74.4349 288.421 72.9903C289.845 71.7604 291.485 69.7848 291.369 67.2727C291.314 67.2191 291.261 67.1668 291.21 67.1159C291.097 67.8051 290.847 68.5797 290.32 69.2167C289.035 70.7699 286.312 70.3255 284.511 70.0325C284.371 70.0091 284.236 69.9871 284.11 69.9678C278.385 69.075 272.611 65.9809 269.042 61.8908C266.854 59.3828 265.822 56.4029 266.211 53.7161C266.583 51.1489 268.151 49.0289 269.668 46.979C270.004 46.5251 270.352 46.0545 270.677 45.5923C271.759 44.0487 272.511 42.4391 273.304 40.7345C273.697 39.8939 274.101 39.0245 274.548 38.1688C275.257 36.8136 275.717 35.2852 276.165 33.8063C276.535 32.5818 276.917 31.3161 277.443 30.1206C278.697 27.2673 280.307 24.9987 282.227 23.3781C284.531 21.4355 287.345 20.3473 290.27 19.3155C290.892 19.0954 291.504 18.8587 292.096 18.6304C294.397 17.7403 296.571 16.8997 299.268 17.0097C302.891 17.1583 306.205 18.9949 307.811 21.7176C309.694 21.3612 311.748 21.4328 313.771 21.9267C318.235 23.0149 320.919 26.8945 322.121 29.1094C323.389 31.4427 323.914 33.9617 324.423 36.3995C324.69 37.6749 324.965 38.9928 325.343 40.2695C326.001 42.4872 326.811 44.8233 328.272 46.8924C328.845 47.7027 329.513 48.4717 330.161 49.216C330.666 49.7952 331.188 50.395 331.668 51.0182C333.049 52.8108 333.775 54.4659 333.887 56.0769C333.998 57.7016 333.493 59.4681 332.34 61.4781C331.113 63.6174 329.505 65.5297 327.56 67.1627C325.393 68.9814 322.842 70.3915 320.184 71.2431C317.434 72.1236 314.439 71.5472 312.898 71.1248C311.817 70.829 311.078 70.2567 310.7 69.423C309.782 67.3993 311.286 64.308 312.279 62.2609C312.444 61.9211 312.601 61.5991 312.725 61.324C313.544 59.5218 314.54 56.7579 314.64 53.8206C314.713 51.6745 314.26 49.5159 313.823 47.4303C313.24 44.6527 312.636 41.7801 311.314 39.235C310.546 37.7602 309.471 36.2757 308.028 34.6977C307.644 34.2781 307.261 33.8819 306.792 33.6494C305.538 33.0276 303.989 33.7485 303.083 34.6799C302.373 35.409 301.868 36.2936 301.333 37.2291C301.097 37.6418 300.852 38.0683 300.591 38.4783C297.998 42.5368 293.209 45.1961 288.392 45.2511L288.31 45.2525C287.373 45.2621 286.311 45.2745 285.862 45.9349C285.679 46.2045 285.62 46.5649 285.584 46.8827C285.418 48.4112 285.694 50.4735 286.257 51.8987C286.563 52.6705 287.088 53.3199 287.645 54.0064C288.255 54.7575 288.883 55.5348 289.227 56.5075C289.604 57.5723 289.584 58.7032 289.564 59.7983C289.542 61.0048 289.523 62.1439 290.01 63.1358C290.232 63.5871 290.555 63.9984 290.896 64.4346C291.468 65.1651 292.059 65.919 292.167 66.8944C292.228 66.9508 292.282 67.0003 292.326 67.0388C292.485 67.1833 292.621 67.3099 292.718 67.4103C293.286 68.0088 293.912 68.6375 294.645 69.1823C297.176 71.0657 301.392 72.5542 304.936 70.5539C306.918 69.434 308.552 67.6868 309.536 65.6328C309.635 65.4278 309.881 65.3398 310.086 65.4388C310.291 65.5379 310.378 65.7842 310.28 65.9891C308.306 70.1095 309.982 74.6564 314.354 77.046C314.47 77.1093 314.548 77.2235 314.564 77.3528C314.582 77.4835 314.537 77.6142 314.442 77.705C313.209 78.8964 311.358 79.5348 310.005 79.9998C301.441 82.9494 291.9 83.0044 283.279 80.2364C287.321 82.3495 292.258 83.4598 297.544 83.3992C301.795 83.3525 306.296 83.1888 310.492 81.7841C312.315 81.1733 313.663 80.2584 315.225 79.1991C315.466 79.0354 315.71 78.8703 315.96 78.7024C316.243 78.5126 316.427 78.3681 316.576 78.2512C317.169 77.7848 317.337 77.8275 318.13 78.1274C318.213 78.159 318.307 78.1934 318.41 78.2319C323.825 80.2419 328.62 83.8051 332.279 88.5363C335.597 92.83 337.317 98.0345 338.321 101.576C338.815 103.319 339.196 105.095 339.565 106.813C340.116 109.384 340.687 112.042 341.643 114.596C342.56 117.039 343.867 119.319 345.131 121.524C346.676 124.219 348.274 127.005 349.176 130.118C349.445 131.05 349.679 132.042 349.869 133.067C350.619 137.11 351.341 144.767 347.754 150.611C346.201 153.143 343.843 154.94 341.116 155.67C340.866 155.737 340.628 155.79 340.397 155.838C340.218 156.006 340.056 156.187 339.911 156.388C339.664 156.731 339.514 157.188 339.483 157.64C341.437 157.205 343.646 157.251 345.638 157.292C345.887 157.298 346.135 157.302 346.377 157.306C352.157 157.402 357.689 158.91 362.374 161.666C365.976 163.784 368.737 167.009 370.098 170.586C374.65 173.946 379.823 177.235 386.202 179.966C401.988 186.722 419.248 189.556 436.117 188.163C460.829 186.122 484.249 172.347 497.24 152.213C497.364 152.022 497.619 151.967 497.811 152.09C498.003 152.214 498.058 152.469 497.934 152.661C491.446 162.717 482.164 171.429 471.093 177.857C460.26 184.145 448.19 187.995 436.185 188.985C419.182 190.39 401.786 187.532 385.876 180.724C379.855 178.147 374.905 175.082 370.537 171.929C370.636 172.289 370.721 172.654 370.791 173.018C371.54 176.92 370.593 180.711 368.054 183.983C363.897 189.337 357.861 192.547 349.596 193.798C346.306 194.296 342.97 194.629 339.632 194.873C339.753 195.122 339.816 195.505 339.534 196.002C339.329 196.361 338.98 196.645 338.465 196.875C337.193 197.442 335.798 197.474 334.449 197.505C333.31 197.531 332.131 197.557 331.071 197.918C329.394 198.485 327.823 198.613 326.304 198.737C322.315 199.061 318.496 198.907 314.952 198.281L307.378 196.941C307.195 196.908 307.056 196.758 307.039 196.572C307.036 196.549 307.036 196.526 307.039 196.502L302.97 196.718C299.025 196.927 294.948 197.143 290.977 197.688C290.057 197.815 289.12 197.996 288.215 198.171C286.506 198.503 284.738 198.845 282.943 198.849C282.939 198.849 282.933 198.849 282.929 198.849C279.841 198.849 278.279 196.586 277.262 194.613C276.681 193.484 276.31 192.306 276.026 191.303C275.401 189.104 275.03 186.897 274.768 184.759C274.625 185.538 274.565 186.413 274.577 187.512C274.618 190.955 275.684 193.793 277.744 195.947L277.759 195.962C277.909 196.118 278.096 196.314 278.188 196.585C278.326 196.992 278.168 197.434 277.821 197.613C276.453 198.314 274.895 198.628 273.388 198.932C273.127 198.984 272.866 199.038 272.608 199.091C270.86 199.46 269.114 199.686 267.418 199.764C266.966 199.783 266.516 199.793 266.064 199.793ZM245.523 194.64C246.763 194.64 247.859 194.989 248.921 195.329C249.405 195.483 249.906 195.644 250.42 195.772C252.302 196.241 254.194 196.798 256.022 197.337L256.915 197.6C260.469 198.643 263.989 199.093 267.375 198.937C269.027 198.862 270.729 198.642 272.434 198.283C272.694 198.227 272.956 198.175 273.221 198.122C274.66 197.831 276.148 197.53 277.405 196.893C277.407 196.879 277.407 196.861 277.401 196.845C277.368 196.749 277.267 196.643 277.159 196.53L277.144 196.513C274.935 194.203 273.793 191.177 273.749 187.517C273.735 186.363 273.8 185.437 273.954 184.605C274.014 184.28 274.111 183.957 274.204 183.646C274.362 183.116 274.514 182.616 274.486 182.13C273.774 182.164 273.066 182.101 272.373 181.9C272.008 181.794 271.654 181.662 271.31 181.533C270.824 181.351 270.366 181.179 269.888 181.082C267.889 180.673 265.514 181.571 263.839 183.369C263.394 183.847 262.989 184.403 262.597 184.939C261.701 186.166 260.774 187.436 259.246 188.013C256.756 188.952 254.062 189.163 251.756 189.245C250.203 189.3 248.165 189.413 246.187 189.794L246.142 189.802C244.487 190.122 241.404 190.717 240.443 192.187C240.255 192.474 240.205 192.796 240.295 193.144C240.434 193.686 240.915 194.256 241.493 194.564C242.244 194.963 243.31 194.842 244.253 194.736C244.551 194.701 244.835 194.67 245.108 194.652C245.249 194.644 245.386 194.64 245.523 194.64ZM310.04 196.568L315.097 197.463C318.571 198.078 322.318 198.227 326.236 197.908C328.041 197.761 329.336 197.628 330.805 197.131C331.986 196.731 333.229 196.703 334.43 196.676C335.756 196.645 337.008 196.616 338.13 196.117C338.478 195.962 338.703 195.788 338.818 195.587C338.956 195.345 338.901 195.248 338.884 195.216C338.826 195.114 338.68 195.021 338.486 194.949C335.019 195.183 331.558 195.33 328.151 195.475C324.36 195.636 320.439 195.802 316.603 196.084L310.04 196.568ZM275.309 182.049C275.579 184.934 275.95 188.021 276.817 191.072C277.09 192.037 277.444 193.166 277.993 194.231C279.343 196.85 280.864 198.02 282.926 198.02C282.931 198.02 282.935 198.02 282.939 198.02C284.656 198.016 286.385 197.681 288.057 197.357C288.973 197.179 289.921 196.995 290.864 196.866C294.869 196.315 298.965 196.098 302.926 195.889L332.763 194.305C333.37 194.274 333.989 194.216 334.587 194.161C335.619 194.066 336.686 193.967 337.751 193.987C338.011 193.993 338.308 194.031 338.592 194.115C342.239 193.866 345.887 193.52 349.474 192.978C357.519 191.76 363.383 188.651 367.403 183.473C369.792 180.394 370.684 176.83 369.982 173.17C369.849 172.471 369.656 171.779 369.411 171.099C367.954 170.019 366.559 168.932 365.21 167.856C358.498 162.505 351.825 159.795 345.374 159.795C345.257 159.795 345.139 159.796 345.022 159.797C344.596 159.804 344.044 159.905 343.461 160.012C342.198 160.244 340.766 160.507 339.783 159.956C339.298 159.685 338.955 159.246 338.78 158.68C338.552 158.756 338.33 158.841 338.116 158.937C338.121 159.588 338.142 160.265 338.165 160.967C338.255 163.748 338.346 166.627 337.442 169.013C336.453 171.627 333.769 171.502 331.611 171.403C331.142 171.381 330.701 171.36 330.282 171.365C326.617 171.4 322.895 171.387 319.296 171.374C317.423 171.367 315.486 171.36 313.579 171.36C313.044 171.36 312.499 171.349 311.971 171.338C310.92 171.318 309.833 171.296 308.786 171.359C308.013 171.406 307.219 171.407 306.45 171.407C304.769 171.409 303.032 171.41 301.432 171.901C299.35 172.541 297.175 173.324 294.587 174.364C292.464 175.218 290.328 176.144 288.26 177.038C286.117 177.967 283.902 178.927 281.694 179.81C281.26 179.984 280.817 180.174 280.348 180.374C278.758 181.058 277.033 181.797 275.309 182.049ZM233.847 178.867C233.902 178.93 233.955 178.992 234.01 179.052C235.436 180.634 237.069 182.018 238.865 183.169L239.249 183.415C240.939 184.5 242.534 185.525 244.536 185.916C245.093 186.025 245.455 185.986 245.637 185.798C245.791 185.639 245.857 185.48 245.844 185.297C245.796 184.562 244.594 183.613 244.016 183.158C243.916 183.079 243.828 183.009 243.753 182.948C240.828 180.537 237.418 179.427 233.847 178.867ZM345.374 158.968C352.018 158.968 358.861 161.74 365.724 167.21C366.712 167.997 367.723 168.789 368.765 169.582C367.345 166.699 364.957 164.136 361.956 162.371C357.393 159.687 352.001 158.219 346.365 158.124C346.121 158.12 345.874 158.115 345.623 158.111C343.587 158.069 341.425 158.025 339.576 158.456C339.664 158.728 339.84 159.041 340.186 159.235C340.91 159.64 342.187 159.405 343.312 159.199C343.93 159.085 344.514 158.979 345.01 158.971C345.131 158.969 345.253 158.968 345.374 158.968ZM258.482 158.353C258.129 159.243 258.098 160.294 258.409 161.33C259.012 163.337 259.967 165.302 261.408 167.502C261.428 167.408 261.441 167.303 261.443 167.208C261.478 165.875 261.243 164.476 260.983 163.162C260.811 162.293 260.587 161.551 260.298 160.894C260.25 160.784 260.203 160.675 260.156 160.566C259.902 159.972 259.68 159.458 259.269 158.987C259.057 158.746 258.796 158.534 258.482 158.353ZM339.079 156.157C338.469 156.396 338.154 156.816 338.124 157.921C338.123 157.961 338.121 158.001 338.121 158.04C338.296 157.973 338.474 157.911 338.654 157.855C338.646 157.266 338.795 156.658 339.079 156.157ZM333.397 154.293C333.803 154.293 334.178 154.3 334.528 154.307C336.268 154.34 337.526 154.363 339.631 153.56C341.726 152.759 344.127 151.024 344.583 148.552C345.087 145.825 343.926 142.896 341.552 140.908C341.412 140.791 341.367 140.596 341.438 140.43C341.51 140.262 341.683 140.161 341.865 140.182C344.768 140.512 347.23 143.338 347.354 146.481C347.46 149.16 345.989 151.956 343.578 153.717C344.959 152.864 346.138 151.668 347.055 150.173C350.498 144.564 349.79 137.137 349.063 133.21C348.878 132.212 348.651 131.246 348.389 130.341C347.515 127.323 345.941 124.581 344.421 121.928C343.14 119.696 341.815 117.386 340.876 114.879C339.897 112.269 339.32 109.581 338.762 106.98C338.397 105.275 338.018 103.511 337.531 101.794C335.964 96.2707 334.089 92.2164 331.629 89.0343C328.066 84.4242 323.397 80.9545 318.126 78.9982C318.02 78.9583 317.927 78.9239 317.842 78.8909C317.606 78.8015 317.388 78.719 317.323 78.719C317.297 78.73 317.187 78.8153 317.09 78.8923C316.939 79.0106 316.733 79.173 316.423 79.3807C316.174 79.5472 315.932 79.7122 315.693 79.8746C314.148 80.9229 312.689 81.9134 310.758 82.56C306.448 84.0032 301.872 84.1697 297.556 84.2178C290.543 84.2935 284.129 82.3674 279.494 78.7905C279.329 78.6639 279.285 78.4342 279.391 78.254C279.497 78.0751 279.719 78.0022 279.909 78.0847C289.249 82.1143 300.122 82.5256 309.74 79.2128C310.927 78.8042 312.372 78.3062 313.45 77.4684C311.486 76.2632 309.996 74.5546 309.224 72.6051C308.691 71.2583 308.513 69.8591 308.687 68.4627C307.752 69.5881 306.614 70.547 305.343 71.2651C301.454 73.4622 296.885 71.8691 294.154 69.8371C293.397 69.2744 292.759 68.6416 292.181 68.0349C291.806 72.7028 286.289 75.995 282.387 77.13C281.724 77.3226 281.064 77.5069 280.424 77.6858C275.178 79.1496 270.648 80.4139 267.456 85.4106C265.842 87.9365 264.881 90.8613 264.105 93.4037C263.329 95.9475 262.719 98.5545 262.129 101.078C261.445 104.002 260.737 107.026 259.767 109.979C257.903 115.647 255.556 121.195 252.791 126.468C252.487 127.049 252.176 127.63 251.865 128.209C250.317 131.098 248.716 134.086 247.872 137.271C246.455 142.624 247.743 149.288 253.813 152.112C256.59 153.404 259.737 154.151 262.913 154.272C263.849 154.308 264.784 154.289 265.694 154.213C265.798 154.205 265.935 154.197 266.095 154.187C266.943 154.139 269.192 154.011 269.634 153.29C269.759 153.085 269.692 152.715 269.551 152.619C269.312 152.455 268.853 152.419 268.445 152.389C268.268 152.375 268.1 152.363 267.943 152.339L266.007 152.055C265.782 152.022 265.626 151.812 265.659 151.587C265.692 151.361 265.9 151.206 266.126 151.237C266.873 151.343 269.875 151.181 270.59 151.05C270.897 150.995 271.275 150.863 271.715 150.661C271.937 150.559 272.147 150.243 272.119 150.057C272.079 149.804 271.966 149.534 271.433 149.442C270.952 149.36 269.82 149.27 268.888 149.216C268.635 149.208 268.398 149.197 268.185 149.186C267.918 149.172 267.687 149.161 267.555 149.166C267.323 149.174 267.137 148.992 267.13 148.765C267.123 148.537 267.302 148.347 267.53 148.34C267.536 148.34 267.541 148.34 267.546 148.34C267.79 148.335 268.332 148.357 268.953 148.392C270.03 148.423 271.432 148.38 272.091 147.845C272.216 147.743 272.346 147.498 272.33 147.116C272.311 146.64 271.729 146.341 270.773 146.315C270.649 146.312 270.374 146.296 269.992 146.274C269.146 146.226 267.73 146.146 267.164 146.162C266.936 146.176 266.746 145.99 266.739 145.763C266.732 145.535 266.911 145.345 267.138 145.338C267.482 145.327 267.81 145.32 268.121 145.313C270.23 145.267 271.246 145.213 271.31 144.517C271.341 144.159 270.685 143.788 269.711 143.612C269.067 143.495 268.4 143.415 267.755 143.336C266.69 143.207 265.588 143.075 264.523 142.775C261.716 141.987 260.504 139.992 261.198 137.301C261.218 137.22 261.249 137.113 261.283 136.985C261.932 134.632 262.048 133.237 261.624 132.841C261.484 132.71 261.223 132.71 260.846 132.842C260.548 132.947 260.326 133.259 260.085 133.628C259.88 133.941 259.685 134.265 259.477 134.606C258.888 135.577 258.278 136.583 257.446 137.363C256.379 138.356 255.277 139.383 254.415 140.567C252.891 142.662 252.115 145.348 252.284 147.934C252.297 148.12 252.184 148.291 252.008 148.351C251.833 148.412 251.638 148.348 251.532 148.196C249.613 145.41 250.655 141.698 252.132 139.366C253.074 137.878 254.279 136.575 255.446 135.315C256.271 134.422 257.126 133.499 257.869 132.526C258.133 132.181 258.389 131.872 258.636 131.575C259.514 130.521 260.207 129.689 260.316 128.218C260.368 127.514 260.341 126.599 260.31 125.632C260.222 122.772 260.114 119.213 261.935 117.483C262.751 116.709 263.881 116.375 265.295 116.487H275.03C277.535 116.487 280.039 116.621 282.46 116.75C284.855 116.878 287.332 117.01 289.782 117.01H322.637C323.137 117.01 323.636 117.007 324.136 117.006C326.528 116.995 329.003 116.985 331.409 117.225C331.646 117.248 331.881 117.27 332.115 117.292C335.663 117.628 339.014 117.946 340.281 122.27C341.118 125.127 340.909 128.375 340.706 131.517C340.65 132.402 340.594 133.262 340.562 134.096C341.627 134.8 341.847 136.963 341.918 138.775C341.923 138.874 341.927 138.984 341.931 139.036C341.947 139.096 341.949 139.162 341.935 139.227C341.887 139.45 341.667 139.592 341.444 139.544C340.819 139.409 340.283 138.908 340.008 138.205C339.782 137.627 339.754 137.007 339.731 136.461C339.706 135.885 339.703 135.301 339.717 134.704C339.637 134.715 339.545 134.742 339.438 134.789C338.939 135.01 338.765 135.691 338.816 136.231C338.855 136.646 338.988 137.055 339.128 137.487C339.212 137.744 339.299 138.011 339.366 138.285C339.811 140.083 339.342 142.076 338.145 143.489C336.946 144.901 335.056 145.689 333.21 145.545C332.808 145.513 332.416 145.44 332.036 145.371C331.609 145.291 331.204 145.217 330.796 145.199C330.419 145.181 329.175 145.172 329.022 145.748C328.995 145.851 329.01 145.93 329.073 146.019C329.325 146.374 330.112 146.634 330.895 146.794C331.456 146.861 331.909 146.934 332.112 146.968C332.329 147.006 332.481 147.206 332.453 147.425C332.426 147.644 332.23 147.802 332.012 147.786C331.892 147.776 331.393 147.732 330.791 147.614C329.399 147.45 327.869 147.381 327.461 147.64C327.272 147.758 327.143 147.987 327.129 148.222C327.12 148.392 327.166 148.643 327.443 148.866C327.744 149.108 328.865 149.315 330.013 149.443C330.505 149.452 330.998 149.49 331.438 149.525C331.808 149.553 332.133 149.578 332.343 149.576C332.374 149.574 332.404 149.574 332.431 149.573C332.658 149.563 332.85 149.736 332.862 149.963C332.874 150.19 332.701 150.383 332.475 150.397C332.433 150.4 332.389 150.401 332.34 150.401C331.829 150.412 330.908 150.371 329.959 150.269C329.147 150.258 328.348 150.329 328.018 150.654C327.942 150.728 327.857 150.845 327.872 151.09C327.876 151.159 327.902 151.266 328.078 151.398C328.431 151.663 329.074 151.814 329.751 151.89C330.124 151.854 330.547 151.862 330.998 151.87C331.371 151.877 331.757 151.884 332.115 151.865C332.329 151.852 332.518 152.006 332.547 152.22C332.577 152.433 332.438 152.632 332.229 152.679C331.812 152.773 330.78 152.831 329.751 152.722C329.513 152.749 329.325 152.8 329.234 152.888C329.216 152.906 329.179 152.942 329.179 153.059C329.179 153.19 329.252 153.327 329.398 153.469C329.94 153.996 331.237 154.34 332.555 154.3C332.851 154.296 333.13 154.293 333.397 154.293ZM341.631 138.741C341.668 138.75 341.702 138.764 341.734 138.781C341.704 138.765 341.669 138.751 341.631 138.741ZM341.628 138.741C341.63 138.741 341.63 138.741 341.631 138.741C341.631 138.741 341.63 138.741 341.628 138.741ZM341.627 138.74H341.628C341.628 138.741 341.627 138.741 341.627 138.74ZM341.623 138.74C341.624 138.74 341.624 138.74 341.625 138.74C341.625 138.74 341.624 138.74 341.623 138.74ZM340.54 135.349C340.539 135.713 340.545 136.073 340.561 136.426C340.583 136.932 340.606 137.457 340.782 137.906C340.847 138.072 340.947 138.249 341.079 138.399C341.001 136.976 340.819 135.957 340.54 135.349ZM305.783 32.586C306.249 32.586 306.716 32.6823 307.159 32.901C307.755 33.1968 308.217 33.6714 308.638 34.1323C310.13 35.7639 311.246 37.3062 312.045 38.8456C313.421 41.4898 314.036 44.4188 314.631 47.2514C315.079 49.3866 315.543 51.5933 315.466 53.8399C315.361 56.9133 314.326 59.7873 313.476 61.6569C313.347 61.9417 313.189 62.2678 313.021 62.6131C312.094 64.5199 310.693 67.4034 311.45 69.0736C311.725 69.6803 312.27 70.0875 313.114 70.32C315.585 70.9969 318.07 71.0437 319.93 70.448C322.487 69.6294 324.94 68.2715 327.027 66.5216C328.898 64.9518 330.445 63.1138 331.624 61.0585C332.693 59.1957 333.162 57.5819 333.061 56.125C332.962 54.6819 332.292 53.1727 331.013 51.5135C330.548 50.9096 330.033 50.3194 329.537 49.7484C328.876 48.989 328.193 48.2035 327.597 47.3588C326.067 45.192 325.229 42.7789 324.551 40.4951C324.163 39.1868 323.884 37.851 323.614 36.5591C323.094 34.0704 322.604 31.7206 321.395 29.4947C320.257 27.3994 317.729 23.733 313.574 22.7205C311.564 22.2307 309.527 22.1812 307.684 22.5774C307.504 22.6159 307.321 22.5306 307.235 22.3697C305.83 19.7516 302.689 17.97 299.233 17.8283C296.706 17.7238 294.612 18.5354 292.393 19.3939C291.796 19.625 291.178 19.8644 290.544 20.0873C287.695 21.093 284.954 22.1495 282.759 24.0027C280.934 25.5421 279.4 27.7103 278.197 30.4467C277.692 31.5968 277.316 32.8391 276.953 34.0388C276.495 35.5535 276.022 37.1204 275.279 38.5443C274.84 39.3835 274.439 40.2448 274.051 41.0771C273.277 42.739 272.476 44.4573 271.352 46.0601C271.022 46.5306 270.671 47.0052 270.331 47.4633C268.876 49.432 267.369 51.4667 267.028 53.8289C266.675 56.2777 267.635 59.0169 269.664 61.3432C273.11 65.293 278.695 68.2839 284.236 69.1479C284.365 69.1685 284.5 69.1905 284.643 69.2139C286.258 69.4767 288.699 69.8743 289.683 68.6856C290.404 67.8161 290.482 66.5683 290.466 65.9011C290.461 65.736 290.555 65.5916 290.693 65.5214C290.554 65.3274 290.401 65.1334 290.247 64.9367C289.893 64.4868 289.529 64.0205 289.27 63.4922C288.695 62.3214 288.717 61.0282 288.74 59.7763C288.76 58.7087 288.777 57.6989 288.45 56.7758C288.153 55.9379 287.596 55.2487 287.004 54.5195C286.433 53.8138 285.842 53.0846 285.489 52.1945C284.881 50.6578 284.583 48.4332 284.763 46.7851C284.808 46.3668 284.894 45.8826 285.177 45.4643C285.868 44.4463 287.216 44.4312 288.299 44.4188L288.381 44.4174C292.927 44.3651 297.446 41.8558 299.895 38.0257C300.145 37.6336 300.385 37.2154 300.616 36.8109C301.152 35.8713 301.708 34.9 302.491 34.0952C303.297 33.2683 304.541 32.586 305.783 32.586Z" fill="#171717"></path> </svg> 